<svg width="1511" height="335" viewBox="0 0 1511 335" fill="none" xmlns="http://www.w3.org/2000/svg">
<g id="Group 1">
<path id="Vector" d="M1114.95 120.56C1111.14 108.66 1119.28 98.8924 1130.4 101.394C1136.56 102.78 1138.9 106.72 1137.47 113.277C1135.15 123.951 1123.07 128.092 1114.95 120.56Z" fill="black"/>
<path id="Vector_2" d="M81.0636 328.29C62.1141 333.867 43.3137 337.043 24.1366 332.329C2.41401 326.991 -6.0309 305.597 5.98485 286.699C14.0853 273.959 25.766 264.674 37.621 255.75C67.1936 233.491 99.8677 216.556 133.231 200.877C143.326 196.134 153.61 191.793 163.793 187.237C164.966 186.712 166.404 186.464 167.061 184.46C162.204 178.448 156.275 173.23 149.849 168.504C135.998 158.316 120.689 150.431 106.414 140.911C98.6254 135.717 91.0484 130.252 85.1055 122.922C71.3878 106.004 71.8469 82.9217 86.3044 64.4494C97.9857 49.5242 113.144 38.6515 128.951 28.6274C148.936 15.9544 170.109 6.02644 193.677 2.16435C207.943 -0.173179 222.004 0.153725 234.449 8.8101C242.729 14.5695 246.822 22.7577 247.432 32.9464C247.977 42.0516 245.863 50.4175 242.097 58.5427C237.331 68.8275 232.406 79.0258 225.868 88.3383C224.63 90.1015 223.256 91.8092 221.724 93.3185C217.392 97.5877 212.787 98.1096 208.776 94.9585C204.533 91.6239 203.521 86.6557 206.479 81.5606C211.668 72.6215 216.643 63.5786 220.83 54.1249C223.135 48.9206 224.789 43.4999 224.615 37.7348C224.298 27.215 218.44 21.4254 207.881 21.4108C195.174 21.3933 183.222 24.9807 171.678 29.8996C149.119 39.5124 128.415 52.1129 110.779 69.3104C104.617 75.3186 99.9827 82.3221 99.2031 91.3776C98.2222 102.772 103.313 111.342 111.371 118.533C123.376 129.245 137.446 136.989 150.898 145.614C164.081 154.068 177.539 162.184 187.281 174.9C189.004 177.15 190.954 176.507 193.095 175.781C206.482 171.236 219.838 166.592 233.298 162.275C243.116 159.127 253.056 156.353 262.987 153.575C266.618 152.559 268.914 150.625 270.552 147.103C280.875 124.905 289.864 102.106 300.749 80.165C304.08 73.4489 307.276 66.6414 311.575 60.4731C314.32 56.5343 317.75 53.1579 323.108 54.1555C329.96 55.431 332.658 61.8969 329.281 69.0086C323.422 81.3437 317.294 93.5506 311.391 105.865C300.964 127.615 290.621 149.405 280.242 171.178C280.556 171.473 280.87 171.768 281.184 172.062C284.156 169.875 287.194 167.771 290.088 165.486C308 151.34 325.904 137.186 343.75 122.958C348.035 119.542 352.759 118.091 358.167 118.678C362.15 119.111 365.004 121.072 366.591 124.795C368.041 128.199 367.405 131.265 365.205 134.15C362.516 137.677 358.801 139.963 355.236 142.391C337.744 154.304 320.585 166.663 303.865 179.644C301.016 181.856 300.323 183.891 301.276 187.238C303.25 194.171 305.804 200.83 309.73 206.881C318.206 219.944 331.017 223.514 344.71 215.964C366.042 204.2 383.123 187.913 394.573 166.211C400.641 154.71 406.751 143.249 413.994 132.44C417.335 127.456 421.323 123.297 428.094 123.662C433.887 123.975 437.427 128.904 435.746 134.472C434.816 137.55 432.918 140.11 431.177 142.752C420.251 159.336 409.895 176.191 404.837 195.71C403.654 200.276 403.07 204.844 403.383 209.522C403.847 216.451 408.795 220.002 415.456 217.858C427.115 214.106 435.702 205.868 443.979 197.389C461.851 179.082 474.56 157.139 487.276 135.219C488.362 133.346 489.397 131.441 490.539 129.603C494.129 123.827 499.091 121.821 503.797 124.191C508.205 126.41 509.45 131.352 507.169 137.815C503.792 147.385 500.344 156.93 496.988 166.507C491.05 183.456 486.26 200.746 481.52 218.255C483.185 218.696 484.127 217.627 485.104 216.951C504.036 203.847 522.143 189.707 538.927 173.914C540.503 172.431 541.955 170.933 542.701 168.75C551.733 142.296 564.939 117.812 578.508 93.5193C589.98 72.979 602.582 53.1705 618.029 35.3292C623.926 28.5187 630.175 22.035 638.074 17.4262C641.112 15.6535 644.266 14.2653 647.742 13.5302C656.113 11.7597 663.012 15.9676 665.21 24.2353C667.809 34.0135 665.83 43.3515 662.616 52.5825C653.96 77.4484 639.67 99.0938 623.88 119.831C606.599 142.526 586.562 162.419 562.729 178.261C557.584 181.681 557.11 186.964 556.015 192.116C554.402 199.711 555.327 207.06 558.819 213.955C562.452 221.127 568.747 224.259 576.207 222.129C591.515 217.757 604.554 209.112 616.978 199.465C618.614 198.195 619.249 196.31 619.629 194.253C625.347 163.293 641.881 139.35 667.696 121.866C675.44 116.621 684.332 113.92 694.205 115.45C710.268 117.938 717.764 130.052 713.514 146.783C709.921 160.93 700.323 171.225 689.293 180.201C676.101 190.937 661.306 198.856 645.165 204.086C640.79 205.504 640.245 207.687 641.407 211.44C643.113 216.952 649.197 221.133 656.082 221.703C664.386 222.39 671.832 219.889 679.038 216.132C696.087 207.244 709.438 194.138 721.347 179.339C732.881 165.003 742.784 149.669 750.508 132.931C752.001 129.697 752.309 127.065 750.75 123.603C745.253 111.398 749.505 99.9658 761.021 94.7326C766.261 92.3512 772.158 92.8828 775.513 96.2983C779.429 100.285 779.367 105.266 777.278 109.785C773.348 118.284 776.669 120.836 783.502 123.968C789.553 126.741 795.739 129.285 801.553 132.496C810.184 137.263 812.588 144.612 808.716 153.662C804.363 163.833 797.345 172.446 791.732 181.886C786.711 190.333 781.608 198.69 779.873 208.646C779.101 213.07 779.371 217.025 782.647 220.187C786.203 223.62 790.404 222.483 794.349 220.95C803.553 217.372 810.931 211.124 817.765 204.225C822.804 199.138 827.592 193.802 832.484 188.57C833.736 187.231 834.892 185.796 836.209 184.527C840.379 180.514 845.159 179.84 848.803 182.668C852.195 185.3 852.676 190.641 849.488 195.381C844.168 203.289 837.847 210.383 830.885 216.889C821.43 225.726 810.9 232.992 798.865 237.842C791.858 240.665 784.589 242.321 776.93 240.662C762.481 237.53 755.672 226.939 757.91 212.275C760.357 196.24 767.242 182.213 775.899 168.823C778.881 164.21 781.751 159.515 784.464 154.739C786.722 150.765 786.144 147.399 781.659 145.27C777.148 143.128 772.572 139.028 768.195 139.245C763.047 139.499 762.725 146.61 760.382 150.699C744.757 177.956 726.336 202.852 701.465 222.497C689.016 232.331 675.003 238.422 659.184 240.155C642.378 241.995 629.911 235.166 622.194 219.988C621.83 219.271 621.366 218.605 620.841 217.74C617.352 218.536 614.783 220.696 612.079 222.533C601.287 229.859 590.132 236.524 577.429 239.954C552.523 246.677 537.254 234.236 534.688 208.894C534.459 206.633 534.953 204.27 533.659 201.917C517.754 215.575 500.976 227.905 483.27 238.802C475.812 243.392 471.489 248.89 468.863 257.186C463.525 274.044 456.592 290.329 445.247 304.235C437.79 313.375 429.242 321.207 417.685 324.977C411.542 326.981 405.291 327.459 399.009 325.97C384.404 322.509 377.609 309.279 382.392 294.084C385.691 283.604 392.806 275.986 400.943 269.195C414.705 257.708 430.059 248.645 446.042 240.685C450.257 238.586 452.806 235.973 454.258 231.471C457.352 221.878 461.517 212.628 463.787 201.937C460.48 205.092 457.739 207.65 455.062 210.273C443.331 221.766 431.171 232.595 414.728 236.971C404.174 239.78 394.563 238.348 386.49 230.522C381.753 225.929 380.968 219.745 380.315 213.242C376.629 214.224 374.1 216.676 371.359 218.694C359.914 227.119 348.284 235.035 333.908 237.846C317.196 241.113 301.691 234.904 292.23 220.72C289.539 216.687 287.264 212.421 285.403 207.958C283.621 203.688 282.075 199.321 280.18 194.353C274.041 198.664 267.565 202.196 264.309 209.092C260.4 217.368 256.94 225.856 253.196 234.212C252.248 236.327 251.183 238.46 249.781 240.285C246.726 244.261 241.831 245.398 237.754 243.383C233.515 241.288 230.848 236.267 232.095 231.712C234.657 222.351 239.427 213.884 243.388 205.093C247.818 195.259 252.323 185.459 256.796 175.644C256.518 175.289 256.239 174.935 255.961 174.58C248.151 177.056 240.312 179.443 232.541 182.032C223.074 185.186 213.725 188.708 204.202 191.678C199.495 193.146 197.267 194.671 198.145 200.571C202.136 227.401 191.025 249.333 174.071 268.821C149.034 297.601 117.673 316.745 81.0636 328.29ZM106.721 296.233C115.563 291.56 124.186 286.517 132.08 280.349C150.708 265.796 166.59 249.004 174.615 226.173C177.232 218.728 179.405 211.03 176.051 202.8C174.222 203.361 172.791 203.725 171.413 204.234C156.719 209.661 142.606 216.402 128.693 223.538C96.9436 239.822 66.1277 257.583 39.113 281.235C34.2988 285.45 30.2371 290.289 27.3655 295.985C22.9234 304.797 27.0774 313.026 36.8419 314.396C42.0861 315.133 47.4557 315.046 52.7571 314.187C71.4638 311.152 89.0548 304.758 106.721 296.233ZM590.244 132.741C603.807 118.428 615.77 102.888 625.93 85.9842C633.572 73.269 640.779 60.3254 645.007 45.9854C645.716 43.58 647.003 40.9487 644.655 38.6329C629.531 44.0292 575.384 126.742 572.322 149.299C579.017 144.574 584.253 138.767 590.244 132.741ZM687.548 134.38C684.638 134.597 682.119 135.899 679.681 137.332C663.018 147.13 651.262 161.172 643.923 178.969C642.747 181.821 641.651 184.766 642.015 188.276C643.403 187.923 644.575 187.788 645.609 187.338C658.387 181.777 670.118 174.527 680.051 164.716C686.081 158.759 691.807 152.42 693.99 143.799C695.337 138.48 693.798 135.865 687.548 134.38ZM436.734 282.237C439.873 275.848 443.496 269.633 444.154 262.16C430.934 269.545 418.021 276.964 408.306 288.638C406.635 290.645 405.363 293.081 404.334 295.5C402.933 298.791 402.19 302.353 405.225 305.197C408.171 307.958 411.753 307.327 415.052 305.977C418.456 304.583 421.283 302.228 423.831 299.549C428.659 294.472 432.835 288.915 436.734 282.237Z" fill="black"/>
<path id="Vector_3" d="M1452.59 176.942C1448.03 192.31 1443.58 207.287 1438.94 222.906C1442.73 221.928 1445.08 219.593 1447.73 217.845C1464.9 206.519 1480.83 193.72 1494.71 178.465C1495.49 177.606 1496.33 176.776 1497.25 176.065C1501.26 172.955 1505.57 172.917 1508.57 175.904C1511.57 178.891 1511.88 183.465 1508.55 187.193C1503.57 192.78 1498.33 198.173 1492.84 203.274C1474.62 220.237 1455.15 235.58 1433.09 247.345C1430.49 248.727 1429.33 250.809 1428.39 253.433C1420.75 274.87 1411.15 295.358 1397.26 313.505C1388.51 324.923 1377.67 333.145 1362.52 334.698C1343.04 336.695 1329.84 321.103 1335.69 302.245C1339.53 289.878 1348.56 281.307 1358.17 273.546C1372.85 261.687 1388.87 251.777 1405.88 243.584C1409.65 241.771 1411.96 239.35 1413.19 235.417C1416.23 225.735 1419.51 216.129 1422.62 206.471C1423.06 205.109 1423.81 203.708 1423.22 202.1C1421.13 202.025 1420.47 203.811 1419.42 204.958C1410.06 215.197 1400.18 224.845 1388.29 232.179C1382.02 236.051 1375.44 238.953 1367.85 239.455C1352.32 240.481 1346.03 230.833 1344.11 217.005C1343.86 215.237 1344.07 213.405 1344.07 211.252C1341.41 211.537 1340.21 213.222 1338.73 214.411C1324.43 225.933 1310.06 237.279 1291.64 241.796C1284.24 243.612 1276.76 244.181 1269.37 242.861C1256.29 240.526 1252.11 236.617 1244.14 220.908C1238.83 224.368 1233.63 227.906 1228.28 231.213C1219.05 236.923 1209.56 241.842 1198.61 243.741C1181.75 246.665 1167.09 238.134 1162.14 221.814C1160.94 217.848 1159.81 213.844 1159.99 209.003C1155.1 211.384 1152.04 215.148 1148.42 218.12C1141.21 224.04 1134.28 230.322 1126.27 235.177C1117.02 240.787 1107.21 244.917 1096.1 243.475C1085.36 242.081 1078.32 233.812 1078.08 223.017C1078.03 220.908 1078.07 218.798 1078.07 215.845C1067.12 225.686 1056.49 234.49 1044.34 241.106C1029.7 249.074 1014.32 252.914 997.83 247.316C984.705 242.859 976.835 232.458 969.567 221.562C964.206 213.527 959.202 205.249 954.869 196.603C953.131 193.133 950.875 191.894 946.878 192.704C942.176 193.657 937.318 194.089 932.514 194.205C928.969 194.291 927.186 195.896 925.61 198.826C915.187 218.205 905.753 238.038 897.574 258.471C895.659 263.254 893.794 268.098 890.494 272.18C886.929 276.591 881.35 277.82 876.662 275.243C872.323 272.858 870.754 268.323 873.001 262.626C881.747 240.453 892.1 219.006 902.719 197.683C922.54 157.881 942.343 118.069 962.125 78.2472C962.914 76.6588 964.175 75.1628 963.777 73.1897C962.358 71.5736 961 72.6649 959.688 73.2096C931.531 84.8981 906.692 101.114 888.033 125.758C885.628 128.934 882.695 131.195 878.481 131.35C871.187 131.618 866.589 126.036 868.392 118.934C869.358 115.129 871.56 111.971 874.116 109.088C905.171 74.0695 944.249 52.8617 989.634 43.1847C1007.61 39.3526 1025.89 38.9868 1044.05 43.5428C1077.81 52.0123 1087.63 81.2652 1076.49 109.539C1068.11 130.812 1052.55 146.128 1034.58 159.301C1017.89 171.532 999.361 180.079 979.542 185.912C973.96 187.555 973.712 188.104 976.326 193.095C981.367 202.722 987.295 211.766 994.532 219.903C1004.73 231.37 1015.02 233.949 1029.49 228.692C1045.08 223.027 1056.87 211.93 1069.13 201.36C1083.4 189.053 1091.56 172.589 1100.89 156.858C1101.99 155.006 1103.12 153.102 1104.59 151.556C1108.55 147.389 1114.81 146.479 1118.68 149.278C1122.37 151.958 1123.02 157.649 1120.17 162.931C1116.53 169.67 1112.7 176.309 1109.23 183.133C1104.53 192.362 1101.03 202.042 1099.17 212.272C1098.65 215.089 1098.3 217.9 1099.58 220.588C1101.36 224.314 1104.09 226.139 1108.42 225.033C1117.13 222.806 1123.8 217.147 1130.42 211.624C1140.26 203.406 1149.71 194.713 1159.37 186.263C1162.33 183.669 1164.04 180.5 1165.43 176.772C1180.55 136.208 1198.5 97.085 1225.22 62.5969C1233.31 52.1561 1242.34 42.6083 1253.5 35.3087C1257.02 33.0104 1260.71 31.2787 1264.89 30.4342C1275.55 28.2797 1282.98 34.2906 1283.82 45.1983C1284.79 57.788 1281.35 69.2499 1275.99 80.3135C1255.4 122.841 1226.76 158.531 1186.89 184.587C1184.12 186.401 1182.83 188.965 1182.06 191.87C1180.27 198.577 1180.19 205.345 1181.99 212.078C1185.08 223.597 1195.09 228.721 1206.63 224.001C1219.17 218.87 1230.71 211.863 1241.14 203.134C1242.86 201.694 1243.63 199.894 1244.13 197.618C1250.73 167.208 1265.52 142.196 1292.79 125.873C1301.2 120.838 1310.38 118.239 1320.5 120.572C1329.77 122.708 1336.11 130.035 1336.8 139.559C1337.54 149.892 1334.47 158.953 1328.44 167.118C1317.46 181.987 1302.47 191.783 1286.3 200.008C1280.36 203.028 1274.26 205.725 1267.83 207.546C1264.09 208.607 1263.58 210.517 1264.45 214.24C1266.53 223.062 1277.28 226.005 1284.58 225.299C1293.58 224.427 1301.6 220.61 1308.98 215.689C1331.46 200.704 1350.98 183.004 1362.54 157.776C1366.55 149.021 1371.82 140.844 1376.5 132.395C1377.73 130.172 1379.3 128.248 1381.41 126.825C1385.65 123.976 1390.91 123.922 1393.9 127.002C1397.21 130.415 1397.31 134.324 1395.04 138.465C1387.92 151.46 1380.6 164.347 1374.55 177.907C1370.19 187.677 1366.8 197.72 1365.1 208.304C1364.49 212.11 1364.82 215.761 1368.06 218.276C1371.23 220.743 1374.78 219.899 1377.96 218.184C1390.19 211.6 1399.74 201.803 1409.03 191.757C1420.85 178.98 1431.05 165.038 1439.04 149.521C1440.03 147.596 1441.03 145.599 1442.98 144.462C1446.86 142.208 1450.94 140.675 1455.18 143.394C1459.28 146.026 1459.85 150.135 1458.75 154.439C1456.87 161.845 1454.73 169.184 1452.59 176.942ZM962.09 123.068C954.046 139.509 945.509 155.727 938.089 173.494C945.658 173.012 951.801 171.84 957.929 170.614C983.614 165.476 1007.42 156.037 1027.63 138.985C1040.36 128.25 1051.5 116.143 1056.35 99.594C1062.36 79.1318 1055.04 66.5249 1034.38 61.7372C1024.52 59.4538 1014.51 60.2989 1004.54 60.4978C996.209 60.664 991.22 64.6822 987.614 72.442C979.759 89.3469 970.895 105.783 962.09 123.068ZM1245.31 68.3723C1221.86 97.782 1193.58 148.334 1195.65 157.159C1197.14 157.133 1197.99 156.025 1198.97 155.174C1214.53 141.699 1228.02 126.4 1239.33 109.208C1249.04 94.4486 1257.74 79.1519 1263.2 62.2285C1264.11 59.4267 1265.04 56.5947 1263.09 53.1225C1255.64 56.3169 1251.03 62.4806 1245.31 68.3723ZM1317.03 145.624C1315.56 138.753 1312.79 137.086 1306.56 139.444C1305.02 140.028 1303.53 140.81 1302.11 141.656C1283.92 152.495 1273.12 168.972 1266.45 188.575C1266.23 189.2 1266.13 189.884 1266.83 190.441C1268.51 191.226 1270.02 190.352 1271.49 189.672C1286 182.97 1298.81 173.928 1309.24 161.738C1313.05 157.295 1316.1 152.356 1317.03 145.624ZM1375.75 308.841C1387.65 297.076 1395.42 282.756 1401.28 267.108C1385.95 276.391 1370.35 285.223 1359.39 299.988C1358.42 301.301 1357.61 302.853 1357.16 304.419C1356.37 307.192 1356.19 310.037 1358.34 312.423C1360.65 314.987 1363.61 315.046 1366.63 314.245C1369.91 313.376 1372.67 311.512 1375.75 308.841Z" fill="black"/>
</g>
</svg>
